<svg xmlns="http://www.w3.org/2000/svg" width="96" height="96" viewBox="0 0 96 96">
    <defs>
        <linearGradient id="ioty9pn6ya" x1=".02" y1=".456" x2="1" y2=".455" gradientUnits="objectBoundingBox">
            <stop offset="0" stop-color="#67aafc"/>
            <stop offset="1" stop-color="#3e84f7"/>
        </linearGradient>
        <linearGradient id="ip3z2thesb" x1=".5" x2=".5" y2="1" gradientUnits="objectBoundingBox">
            <stop offset="0" stop-color="#e6e9ed"/>
            <stop offset="1" stop-color="#d9dde2"/>
        </linearGradient>
        <linearGradient id="z79xlwwq9c" x1=".5" x2=".5" y2="1" gradientUnits="objectBoundingBox">
            <stop offset="0" stop-color="#8fbdfa"/>
            <stop offset="1" stop-color="#74b0ff"/>
        </linearGradient>
    </defs>
    <g data-name="그룹 25505">
        <g data-name="그룹 25084" transform="translate(-443 -567.033)">
            <rect data-name="사각형 30798" width="68" height="54" rx="6" transform="rotate(90 -33.517 551.517)" style="fill:url(#ioty9pn6ya)"/>
            <rect data-name="사각형 30799" width="46" height="60" rx="4" transform="translate(468 589.033)" style="fill:#fff"/>
            <path data-name="패스 22039" d="M178.146 6.245h-5.815a2.281 2.281 0 0 1-2.186-1.726l-.061-.221a4.8 4.8 0 0 0-9.322 0l-.061.221a2.281 2.281 0 0 1-2.186 1.726H152.7a2.319 2.319 0 0 0-2.277 2.364v3.026h30V8.609a2.319 2.319 0 0 0-2.277-2.364zm-12.723.685A1.894 1.894 0 0 1 163.564 5a1.86 1.86 0 1 1 3.718 0 1.894 1.894 0 0 1-1.859 1.93z" transform="translate(325.576 576.398)" style="fill:url(#ip3z2thesb)"/>
            <path data-name="사각형 30800" d="M0 0h30v1a2 2 0 0 1-2 2H2a2 2 0 0 1-2-2V0z" transform="translate(476 588)" style="fill:url(#ip3z2thesb)"/>
            <g data-name="그룹 25083">
                <g data-name="그룹 25080">
                    <g data-name="그룹 25079" transform="translate(0 3)">
                        <rect data-name="사각형 30801" width="24" height="2" rx="1" transform="translate(484 596)" style="fill:url(#ip3z2thesb)"/>
                        <rect data-name="사각형 30802" width="16" height="2" rx="1" transform="translate(484 600)" style="fill:url(#ip3z2thesb)"/>
                    </g>
                    <path data-name="패스 22040" d="M-19316.648 601.357a.669.669 0 0 1-.471-.193l-1.937-1.913a.652.652 0 0 1 0-.933.67.67 0 0 1 .941 0l1.467 1.447 3.256-3.214a.67.67 0 0 1 .941 0 .652.652 0 0 1 0 .933l-3.727 3.681a.675.675 0 0 1-.47.192z" transform="translate(19793.254 3.143)" style="fill:url(#z79xlwwq9c)"/>
                </g>
                <g data-name="그룹 25081">
                    <g data-name="그룹 25079" transform="translate(0 19)">
                        <rect data-name="사각형 30801" width="24" height="2" rx="1" transform="translate(484 596)" style="fill:url(#ip3z2thesb)"/>
                        <rect data-name="사각형 30802" width="16" height="2" rx="1" transform="translate(484 600)" style="fill:url(#ip3z2thesb)"/>
                    </g>
                    <path data-name="패스 22040" d="M-19316.648 601.357a.669.669 0 0 1-.471-.193l-1.937-1.913a.652.652 0 0 1 0-.933.67.67 0 0 1 .941 0l1.467 1.447 3.256-3.214a.67.67 0 0 1 .941 0 .652.652 0 0 1 0 .933l-3.727 3.681a.675.675 0 0 1-.47.192z" transform="translate(19793.254 19.143)" style="fill:url(#z79xlwwq9c)"/>
                </g>
                <g data-name="그룹 25082">
                    <g data-name="그룹 25079" transform="translate(0 35)">
                        <rect data-name="사각형 30801" width="24" height="2" rx="1" transform="translate(484 596)" style="fill:url(#ip3z2thesb)"/>
                        <rect data-name="사각형 30802" width="16" height="2" rx="1" transform="translate(484 600)" style="fill:url(#ip3z2thesb)"/>
                    </g>
                    <path data-name="패스 22040" d="M-19316.648 601.357a.669.669 0 0 1-.471-.193l-1.937-1.913a.652.652 0 0 1 0-.933.67.67 0 0 1 .941 0l1.467 1.447 3.256-3.214a.67.67 0 0 1 .941 0 .652.652 0 0 1 0 .933l-3.727 3.681a.675.675 0 0 1-.47.192z" transform="translate(19793.254 35.143)" style="fill:url(#z79xlwwq9c)"/>
                </g>
            </g>
        </g>
    </g>
</svg>
